<?xml version="1.0" encoding="iso-8859-1"?>
<!-- Generator: Adobe Illustrator 19.0.0, SVG Export Plug-In . SVG Version: 6.00 Build 0)  -->
<svg version="1.1" id="Layer_1" xmlns="http://www.w3.org/2000/svg" xmlns:xlink="http://www.w3.org/1999/xlink" x="0px" y="0px"
	 viewBox="0 0 512 512" style="enable-background:new 0 0 512 512;" xml:space="preserve">
<path style="fill:#D29B6E;" d="M346.254,181.348l-40.666-15.25c-6.675-2.503-11.097-10.394-11.097-17.522h-68.409
	c0,7.128-4.422,15.019-11.097,17.522l-40.666,15.25c-10.012,3.755-16.646,13.327-16.646,24.02v16.427
	c0,9.446,7.656,17.102,17.102,17.102h171.023c9.446,0,17.102-7.656,17.102-17.102v-16.427
	C362.9,194.675,356.266,185.104,346.254,181.348z"/>
<path style="fill:#E4EAF6;" d="M346.254,181.348l-32.892-12.335l-42.127,35.106c-6.343,5.286-15.556,5.286-21.897,0l-42.127-35.106
	l-32.892,12.335c-10.012,3.755-16.646,13.327-16.646,24.02v16.427c0,9.446,7.656,17.102,17.102,17.102h171.023
	c9.446,0,17.102-7.656,17.102-17.102v-16.427C362.9,194.675,356.268,185.104,346.254,181.348z"/>
<path style="fill:#F0C087;" d="M317.713,44.497l-5.336,80.037c-0.497,7.46-4.224,14.331-10.205,18.817l-17.942,13.456
	c-4.44,3.331-9.841,5.131-15.392,5.131h-17.102c-5.551,0-10.952-1.8-15.392-5.131l-17.942-13.457
	c-5.98-4.485-9.708-11.357-10.205-18.817l-5.336-80.037c-1.316-19.741,14.343-36.479,34.13-36.479h46.594
	C303.37,8.017,319.028,24.755,317.713,44.497z"/>
<path style="fill:#5A4146;" d="M283.584,8.017H236.99c-19.786,0-35.446,16.738-34.129,36.479l2.127,31.91
	c2.941-0.202,76.287-5.475,112.206-24.129l0.518-7.78C319.028,24.755,303.37,8.017,283.584,8.017z"/>
<path style="fill:#D29B6E;" d="M217.987,446.434l-40.666-15.25c-6.675-2.503-11.097-10.394-11.097-17.522H97.814
	c0,7.128-4.422,15.019-11.097,17.522l-40.666,15.25c-10.012,3.755-16.646,13.327-16.646,24.02v16.427
	c0,9.446,7.656,17.102,17.102,17.102h171.023c9.446,0,17.102-7.656,17.102-17.102v-16.427
	C234.633,459.761,227.999,450.189,217.987,446.434z"/>
<path style="fill:#FF6464;" d="M217.987,446.434L185.095,434.1l-42.127,35.106c-6.343,5.286-15.556,5.286-21.897,0L78.943,434.1
	l-32.892,12.334c-10.012,3.755-16.646,13.327-16.646,24.02v16.427c0,9.446,7.656,17.102,17.102,17.102h171.023
	c9.446,0,17.102-7.656,17.102-17.102v-16.427C234.633,459.761,228,450.189,217.987,446.434z"/>
<path style="fill:#F0C087;" d="M189.445,309.583l-5.336,80.037c-0.497,7.46-4.224,14.331-10.205,18.817l-17.942,13.456
	c-4.44,3.331-9.841,5.131-15.392,5.131h-17.102c-5.551,0-10.952-1.8-15.392-5.131l-17.942-13.457
	c-5.98-4.485-9.708-11.357-10.205-18.817l-5.336-80.037c-1.316-19.742,14.342-36.48,34.129-36.48h46.594
	C175.103,273.102,190.761,289.84,189.445,309.583z"/>
<path style="fill:#7D5A50;" d="M155.317,273.102h-46.594c-19.786,0-35.446,16.738-34.129,36.479l2.127,31.91
	c2.941-0.202,76.287-5.475,112.206-24.129l0.518-7.78C190.761,289.84,175.103,273.102,155.317,273.102z"/>
<path style="fill:#5A4146;" d="M397.105,273.102c-62.237,0-76.384,67.797-76.96,142.49c-0.024,3.108,1.881,5.907,4.8,7.215
	c9.997,4.479,22.118,8.033,35.643,10.342l72.822,0.036c13.61-2.309,25.805-5.877,35.854-10.378c2.919-1.308,4.824-4.107,4.8-7.215
	C473.49,340.899,459.342,273.102,397.105,273.102z"/>
<path style="fill:#D29B6E;" d="M482.616,486.881v-10.766c0-9.206-4.933-17.706-12.926-22.274l-38.316-21.894
	c-5.328-3.045-8.617-8.711-8.617-14.849V401.37H371.45v15.729c0,6.138-3.289,11.804-8.617,14.849l-38.316,21.894
	c-7.993,4.567-12.926,13.067-12.926,22.274v10.766c0,9.446,7.656,17.102,17.102,17.102h136.818
	C474.96,503.983,482.616,496.327,482.616,486.881z"/>
<path style="fill:#F0C087;" d="M439.86,341.511v45.333c0,9.011-4.728,17.361-12.455,21.998l-21.502,12.902
	c-5.416,3.249-12.182,3.249-17.598,0l-21.502-12.902c-7.727-4.636-12.455-12.987-12.455-21.998v-45.333c0,0,51.307,0,68.409-17.102
	L439.86,341.511z"/>
<path style="fill:#FFD782;" d="M469.691,453.842l-24.963-14.264c-4.716,6.692-22.584,30.087-47.623,38.753
	c-25.039-8.666-42.908-32.061-47.624-38.753l-24.963,14.264c-7.993,4.567-12.926,13.068-12.926,22.274v10.766
	c0,9.446,7.656,17.102,17.102,17.102h136.818c9.446,0,17.102-7.656,17.102-17.102v-10.766
	C482.616,466.909,477.683,458.409,469.691,453.842z"/>
<path d="M473.657,446.881l-18.346-10.484c6.154-1.804,11.912-3.897,17.22-6.275c5.843-2.617,9.587-8.345,9.539-14.591
	c-0.345-44.811-5.585-78.3-16.017-102.38c-13.816-31.894-37.018-48.065-68.958-48.065s-55.141,16.171-68.96,48.065
	c-4.095,9.451-7.386,20.36-9.899,32.826l-49.943-34.336v-64.726h77.495c13.851,0,25.119-11.268,25.119-25.119v-16.427
	c0-13.957-8.78-26.625-21.848-31.526l-40.666-15.25c-2.65-0.994-4.644-3.171-5.474-5.79l4.053-3.04
	c7.858-5.894,12.74-14.895,13.393-24.696L325.7,45.03c0.775-11.616-3.342-23.153-11.295-31.653C306.452,4.876,295.215,0,283.572,0
	h-46.594c-11.641,0-22.879,4.876-30.831,13.376c-7.953,8.501-12.07,20.039-11.296,31.653l5.336,80.037
	c0.653,9.801,5.536,18.803,13.393,24.696l4.053,3.04c-0.828,2.619-2.824,4.796-5.474,5.79l-40.666,15.25
	c-13.068,4.901-21.848,17.57-21.848,31.527v16.427c0,13.851,11.268,25.119,25.119,25.119h77.495v64.726l-57.565,39.576l2.74-41.101
	c0.775-11.616-3.342-23.153-11.295-31.653c-7.954-8.5-19.191-13.376-30.833-13.376h-46.594c-11.641,0-22.879,4.876-30.831,13.376
	c-7.953,8.501-12.07,20.039-11.296,31.653l5.336,80.037c0.653,9.801,5.536,18.803,13.393,24.696l4.053,3.04
	c-0.828,2.619-2.824,4.796-5.474,5.79l-40.666,15.25c-13.068,4.901-21.848,17.57-21.848,31.527v16.427
	c0,13.851,11.268,25.119,25.119,25.119H217.52c13.851,0,25.119-11.268,25.119-25.119v-16.427c0-13.957-8.78-26.625-21.848-31.526
	l-40.666-15.25c-2.65-0.994-4.644-3.171-5.474-5.79l4.053-3.04c7.859-5.894,12.74-14.895,13.393-24.696l1.237-18.544l66.942-46.022
	l55.08,37.867c-2.016,15.334-3.088,32.639-3.239,52.078c-0.048,6.247,3.696,11.975,9.54,14.591
	c5.307,2.378,11.064,4.472,17.219,6.277l-18.344,10.483c-10.464,5.979-16.965,17.181-16.965,29.234v10.766
	c0,13.851,11.268,25.119,25.119,25.119h136.818c13.851,0,25.119-11.268,25.119-25.119v-10.766
	C490.622,464.062,484.121,452.86,473.657,446.881z M217.854,24.33c5.006-5.35,11.797-8.297,19.124-8.297h46.594
	c7.326,0,14.118,2.947,19.124,8.297c5.006,5.351,7.494,12.323,7.007,19.633l0,0l-0.079,1.182
	c-27.248,15.519-81.868,21.52-97.167,22.935l-1.608-24.117C210.361,36.653,212.849,29.681,217.854,24.33z M213.524,84.094
	c14.292-1.275,63.014-6.484,94.868-20.461l-2.109,31.631c0,0.002-0.001,0.004-0.001,0.006c-0.883,13.25-12.849,24.446-26.129,24.446
	h-19.877c-4.427,0-8.017,3.589-8.017,8.017c0,4.427,3.589,8.017,8.017,8.017h19.877c8.494,0,16.544-2.698,23.299-7.268
	c-1.13,3.336-3.223,6.298-6.099,8.456l-17.944,13.456c-3.032,2.275-6.792,3.527-10.582,3.527h-17.102
	c-3.79,0-7.55-1.253-10.582-3.527L223.2,136.936c-4.116-3.087-6.673-7.802-7.015-12.937L213.524,84.094z M231.522,163.22
	c5.79,4.343,12.965,6.734,20.202,6.734h17.102c7.237,0,14.412-2.391,20.202-6.734l0.814-0.611c1.797,3.112,4.254,5.823,7.206,7.933
	l-36.774,24.516L223.5,170.541c2.953-2.11,5.41-4.822,7.206-7.933L231.522,163.22z M165.678,221.795v-16.427
	c0-7.31,4.599-13.947,11.444-16.513l28.764-10.786l49.943,33.295c1.347,0.898,2.897,1.347,4.447,1.347s3.1-0.449,4.447-1.347
	l49.943-33.295l28.764,10.786c6.845,2.566,11.445,9.203,11.445,16.513v16.427c0,5.01-4.076,9.086-9.086,9.086H174.765
	C169.754,230.881,165.678,226.805,165.678,221.795z M89.587,289.416c5.006-5.35,11.797-8.297,19.124-8.297h46.594
	c7.326,0,14.118,2.947,19.124,8.297c5.006,5.351,7.494,12.323,7.007,19.633l0,0l-0.079,1.182
	c-27.248,15.519-81.868,21.52-97.167,22.935l-1.608-24.117C82.094,301.739,84.582,294.767,89.587,289.416z M226.605,470.454v16.427
	c0,5.01-4.076,9.086-9.086,9.086H46.497c-5.01,0-9.086-4.076-9.086-9.086v-16.427c0-7.31,4.599-13.947,11.444-16.513l29.138-10.926
	c9.545,20.996,30.64,34.781,54.015,34.781c23.374,0,44.47-13.784,54.015-34.782l29.137,10.926
	C222.006,456.507,226.605,463.144,226.605,470.454z M171.089,437.106c-7.117,14.913-22.293,24.656-39.081,24.656
	c-16.79,0-31.965-9.743-39.082-24.656c3.997-2.237,7.265-5.52,9.513-9.412l0.816,0.611c5.79,4.343,12.965,6.734,20.202,6.734h17.102
	c7.237,0,14.412-2.391,20.202-6.734l0.814-0.611C163.824,431.587,167.093,434.869,171.089,437.106z M169.084,402.022l-17.942,13.457
	c-3.032,2.275-6.792,3.527-10.582,3.527h-17.102c-3.79,0-7.55-1.253-10.582-3.527l-17.942-13.457
	c-4.116-3.087-6.673-7.802-7.015-12.937l-2.66-39.906c14.292-1.275,63.014-6.484,94.867-20.461l-4.024,60.367
	C175.757,394.22,173.2,398.936,169.084,402.022z M423.27,401.968l-21.502,12.902c-2.883,1.729-6.466,1.729-9.349,0l-21.502-12.902
	c-5.281-3.168-8.563-8.964-8.563-15.124v-37.557c5.317-0.264,12.787-0.818,20.909-1.977c16.975-2.425,29.989-6.522,38.836-12.211
	l9.733,9.733v42.013C431.833,393.004,428.551,398.799,423.27,401.968z M366.8,438.908c5.439-3.107,9.435-8.108,11.364-13.893
	l6.006,3.604c3.986,2.391,8.455,3.587,12.924,3.587s8.938-1.196,12.924-3.587l6.006-3.604c1.928,5.786,5.926,10.786,11.363,13.893
	l4.499,2.571c-4.001,5.367-17.024,21.366-34.79,28.327c-17.669-6.934-30.765-22.962-34.787-28.33L366.8,438.908z M328.151,415.46
	c0.342-42.52,5.149-73.901,14.695-95.935c11.197-25.843,28.941-38.405,54.247-38.405c25.306,0,43.051,12.563,54.247,38.405
	c9.546,22.034,14.353,53.417,14.695,95.935c-0.017,0.01-0.036,0.02-0.06,0.031c-8.754,3.922-19.426,7.093-30.998,9.254
	c-2.603-1.66-4.214-4.542-4.214-7.647c0-0.304-0.02-0.602-0.053-0.897l0.808-0.485c10.083-6.05,16.347-17.113,16.347-28.872v-45.333
	c0-2.126-0.844-4.164-2.348-5.668l-17.102-17.102c-3.131-3.131-8.207-3.131-11.337,0c-5.652,5.652-18.4,10.152-35.895,12.67
	c-14.252,2.051-26.724,2.084-26.846,2.084c-4.427,0-8.017,3.589-8.017,8.017v45.333c0,11.759,6.264,22.823,16.347,28.872
	l0.809,0.485c-0.033,0.294-0.053,0.593-0.053,0.896c0,3.105-1.611,5.987-4.214,7.647c-11.57-2.16-22.246-5.334-30.998-9.254
	C328.188,415.48,328.168,415.468,328.151,415.46z M474.589,486.881c0,5.01-4.076,9.086-9.086,9.086H328.685
	c-5.01,0-9.086-4.076-9.086-9.086v-10.766c0-6.313,3.405-12.181,8.887-15.313l19.811-11.321c3.49,4.939,20.836,27.978,46.263,36.454
	c0.823,0.275,1.679,0.412,2.535,0.412s1.712-0.137,2.535-0.412c25.427-8.475,42.772-31.514,46.263-36.454l19.811,11.32
	c5.481,3.133,8.887,9,8.887,15.313v10.767H474.589z"/>
<g>
</g>
<g>
</g>
<g>
</g>
<g>
</g>
<g>
</g>
<g>
</g>
<g>
</g>
<g>
</g>
<g>
</g>
<g>
</g>
<g>
</g>
<g>
</g>
<g>
</g>
<g>
</g>
<g>
</g>
</svg>
