<?xml version="1.0" encoding="utf-8"?>
<!-- Generator: Adobe Illustrator 16.0.0, SVG Export Plug-In . SVG Version: 6.00 Build 0)  -->
<!DOCTYPE svg PUBLIC "-//W3C//DTD SVG 1.1//EN" "http://www.w3.org/Graphics/SVG/1.1/DTD/svg11.dtd">
<svg version="1.1" id="Layer_1" xmlns="http://www.w3.org/2000/svg" xmlns:xlink="http://www.w3.org/1999/xlink" x="0px" y="0px"
	 width="512px" height="512px" viewBox="0 0 512 512" enable-background="new 0 0 512 512" xml:space="preserve">
<g id="_x31_4_team_x2C__command_x2C__company_x2C__business_x2C__job_x2C__work_x2C__office">
	<g>
		<g>
			<path fill="#F6BB42" d="M411.73,83.917c-39.738,0-71.951,32.212-71.951,71.947V263.79h143.902V155.864
				C483.682,116.129,451.469,83.917,411.73,83.917z"/>
		</g>
	</g>
	<g>
		<g>
			<path fill="#A0D468" d="M487.592,248.043c-3.115-1.194-15.184-10.625-19.9-12.233H411.73h-0.086h-55.963
				c-4.715,1.608-16.785,11.039-19.9,12.233c-13.514,5.036-20.229,10.071-20.229,23.586c0,13.429,0,20.143,0,20.143H507.82
				c0,0,0-6.714,0-20.143C507.82,258.114,501.107,253.079,487.592,248.043z"/>
		</g>
	</g>
	<g opacity="0.3">
		<g>
			<path fill="#FFFFFF" d="M351.771,248.043c3.113-1.194,15.184-10.625,19.9-12.233h-15.99c-4.715,1.608-16.785,11.039-19.9,12.233
				c-13.514,5.036-20.229,10.071-20.229,23.586c0,13.429,0,20.143,0,20.143h15.99c0,0,0-6.714,0-20.143
				C331.543,258.114,338.256,253.079,351.771,248.043z"/>
		</g>
	</g>
	<g opacity="0.2">
		<g>
			<path d="M487.592,248.043c-3.115-1.194-15.184-10.625-19.9-12.233h-15.988c4.715,1.608,16.785,11.039,19.9,12.233
				c13.514,5.036,20.229,10.071,20.229,23.586c0,13.429,0,20.143,0,20.143h15.988c0,0,0-6.714,0-20.143
				C507.82,258.114,501.107,253.079,487.592,248.043z"/>
		</g>
	</g>
	<g>
		<g>
			<rect x="379.83" y="219.118" fill="#EAC6BB" width="63.957" height="28.684"/>
		</g>
	</g>
	<g>
		<g>
			<polygon fill="#E6E9ED" points="467.691,235.81 443.584,219.118 419.881,291.771 451.703,259.793 443.709,251.799 			"/>
		</g>
	</g>
	<g>
		<g>
			<polygon fill="#E6E9ED" points="355.721,235.81 379.83,219.118 403.533,291.771 371.711,259.793 379.705,251.799 			"/>
		</g>
	</g>
	<g>
		<g>
			<g>
				<polygon fill="#FC6E51" points="411.73,251.799 411.73,291.771 419.881,291.771 435.713,243.882 				"/>
			</g>
		</g>
		<g>
			<g>
				<polygon fill="#FC6E51" points="403.533,291.771 411.684,291.771 411.684,251.799 387.699,243.882 				"/>
			</g>
		</g>
	</g>
	<g>
		<g>
			<path fill="#EAC6BB" d="M447.783,125.314c-0.5-0.223-21.977-0.789-36.053-1.14c-14.076,0.351-35.555,0.917-36.055,1.14
				c-0.748,0.332-19.822,33.43-19.822,33.43v8.471c0,35.694,34.602,68.5,55.877,68.586c21.273-0.086,55.875-32.892,55.875-68.586
				v-8.471C467.605,158.745,448.533,125.646,447.783,125.314z"/>
		</g>
	</g>
	<g opacity="0.2">
		<g>
			<path d="M447.783,125.314c-0.5-0.223-21.977-0.789-36.053-1.14c-2.482,0.062-5.209,0.133-7.996,0.203
				c13.016,0.339,27.646,0.753,28.061,0.937c0.748,0.332,19.822,33.43,19.822,33.43v8.471c0,31.494-26.928,60.705-47.883,67.208
				c2.795,0.87,5.49,1.366,7.996,1.378c21.273-0.086,55.875-32.892,55.875-68.586v-8.471
				C467.605,158.745,448.533,125.646,447.783,125.314z"/>
		</g>
	</g>
	<g opacity="0.3">
		<g>
			<path fill="#FFFFFF" d="M371.844,167.216v-8.471c0,0,19.072-33.098,19.822-33.43c0.414-0.184,15.043-0.598,28.059-0.937
				c-2.787-0.07-5.512-0.14-7.994-0.203c-14.076,0.351-35.555,0.917-36.055,1.14c-0.748,0.332-19.822,33.43-19.822,33.43v8.471
				c0,35.694,34.602,68.5,55.877,68.586c2.506-0.012,5.199-0.508,7.994-1.378C398.77,227.92,371.844,198.71,371.844,167.216z"/>
		</g>
	</g>
	<g>
		<g>
			<path fill="#FFCE54" d="M340.809,167.543c21.775-6.097,71.732-24.952,86.91-33.665c23.188-13.175,37.217-25.592,37.584-25.92
				c-13.17-14.725-32.26-24.042-53.572-24.042c-39.738,0-71.951,32.212-71.951,71.947
				C339.779,159.854,340.186,163.733,340.809,167.543z"/>
		</g>
	</g>
	<g opacity="0.5">
		<g>
			<path fill="#FFFFFF" d="M347.773,155.864c0-38.334,30.012-69.578,67.805-71.736c-1.287-0.07-2.545-0.211-3.848-0.211
				c-39.738,0-71.951,32.212-71.951,71.947c0,3.989,0.406,7.869,1.029,11.679c2.266-0.632,4.889-1.433,7.691-2.319
				C348.078,162.156,347.773,159.053,347.773,155.864z"/>
		</g>
	</g>
	<g>
		<g>
			<path fill="#F6BB42" d="M483.682,155.864c0-19.292-7.637-36.776-20.01-49.686l-35.953,27.778c0,0,17.855,19.736,55.518,29.776
				C483.518,161.142,483.682,158.526,483.682,155.864z"/>
		</g>
	</g>
	<g opacity="0.2">
		<g>
			<g>
				<path d="M465.256,107.998c0.008-0.004,0.047-0.035,0.047-0.039c-0.203-0.23-0.438-0.43-0.648-0.656
					c-0.336-0.367-0.641-0.765-0.982-1.125c-0.031-0.035-0.117-0.008-0.164-0.031c-13.086-13.639-31.377-22.23-51.777-22.23
					c-1.375,0-2.717,0.129-4.076,0.207c18.809,1.026,35.625,9.271,47.857,22.023c0.047,0.023,0.133-0.004,0.164,0.031
					c0.344,0.359,0.648,0.758,0.984,1.125c0.211,0.226,0.445,0.425,0.648,0.656c0,0.004-0.039,0.035-0.047,0.039
					c11.406,12.714,18.424,29.441,18.424,47.866c0,1.869-0.164,3.696-0.312,5.527c2.531,0.819,5.131,1.612,7.863,2.342
					c0.281-2.592,0.445-5.207,0.445-7.869C483.682,137.439,476.662,120.712,465.256,107.998z"/>
			</g>
		</g>
	</g>
	<g>
		<g>
			<path fill="#ED5564" d="M419.771,395.864c0,21.821,0,39.809,0,39.809H91.995c0,0,0-17.987,0-39.809
				c0-21.828,10.945-30.065,32.774-38.216c11.109-4.153,39.176-15.028,55.165-23.023l10.149-8.158l29.824,37.256l31.978-15.989
				h7.996l31.977,15.989l29.816-37.256l10.158,8.158c16.066,7.995,44.125,18.87,55.234,23.023
				C408.896,365.799,419.771,374.036,419.771,395.864z"/>
		</g>
	</g>
	<g opacity="0.3">
		<g>
			<g>
				<path fill="#FFFFFF" d="M140.758,357.648c11.109-4.153,39.176-15.028,55.165-23.023l0.422-0.336l-6.262-7.822l-10.149,8.158
					c-15.989,7.995-44.056,18.87-55.165,23.023c-21.829,8.15-32.774,16.388-32.774,38.216c0,21.821,0,39.809,0,39.809h15.989
					c0,0,0-17.987,0-39.809C107.983,374.036,118.929,365.799,140.758,357.648z"/>
			</g>
		</g>
	</g>
	<g opacity="0.2">
		<g>
			<g>
				<path d="M370.961,357.648c-11.109-4.153-39.176-15.028-55.166-23.023l-0.422-0.336l6.262-7.822l10.15,8.158
					c15.988,7.995,44.055,18.87,55.164,23.023c21.83,8.15,32.775,16.388,32.775,38.216c0,21.821,0,39.809,0,39.809h-15.99
					c0,0,0-17.987,0-39.809C403.734,374.036,392.789,365.799,370.961,357.648z"/>
			</g>
		</g>
	</g>
	<g>
		<g>
			<g>
				<g>
					<path fill="#5D9CEC" d="M196.181,291.811H4.312v-7.995c0,0,0-5.355,0-18.627c0-13.354,6.714-18.391,19.986-23.348
						c6.542-2.479,18.3-6.875,27.98-11.512l9.354-9.275l22.781,22.785l15.989-7.916l15.989,7.916l22.703-22.703l9.119,9.111
						c9.744,4.719,21.423,9.115,27.981,11.594c13.351,4.957,19.986,9.993,19.986,23.348c0,13.271,0,18.627,0,18.627V291.811z"/>
				</g>
			</g>
			<g opacity="0.3">
				<g>
					<g>
						<path fill="#FFFFFF" d="M20.301,265.188c0-13.354,6.714-18.391,19.986-23.348c6.542-2.479,18.3-6.875,27.98-11.512
							l1.327-1.312l-7.963-7.964l-9.354,9.275c-9.681,4.637-21.438,9.033-27.98,11.512c-13.272,4.957-19.986,9.993-19.986,23.348
							c0,13.271,0,18.627,0,18.627v7.995h15.989v-7.995C20.301,283.815,20.301,278.46,20.301,265.188z"/>
					</g>
				</g>
			</g>
			<g opacity="0.2">
				<g>
					<g>
						<path d="M180.348,265.188c0-13.354-6.714-18.391-19.986-23.348c-6.542-2.479-18.3-6.875-27.981-11.512l-1.327-1.312
							l7.963-7.964l9.353,9.275c9.681,4.637,21.439,9.033,27.981,11.512c13.272,4.957,19.986,9.993,19.986,23.348
							c0,13.271,0,18.627,0,18.627v7.995h-15.989v-7.995C180.348,283.815,180.348,278.46,180.348,265.188z"/>
					</g>
				</g>
			</g>
		</g>
		<g>
			<g>
				<polygon fill="#ED5564" points="108.569,291.811 92.58,291.811 96.577,248.402 104.572,248.402 				"/>
			</g>
		</g>
		<g>
			<g>
				<rect x="93.181" y="237.535" fill="#ED5564" width="14.24" height="10.867"/>
			</g>
		</g>
		<g>
			<g>
				<polygon fill="#E6E9ED" points="84.585,244.437 60.602,220.453 68.596,212.458 100.699,229.54 100.699,236.442 				"/>
			</g>
		</g>
		<g>
			<g>
				<polygon fill="#E6E9ED" points="116.563,244.437 140.547,220.453 132.553,212.458 100.45,229.54 100.45,236.442 				"/>
			</g>
		</g>
		<g>
			<g>
				<path fill="#656D78" d="M52.357,84.545c0,0,111.924-39.973,104.172,63.957l-16.872-23.984
					c-34.859-2.077-73.872,13.51-95.216,23.664c-9.993,4.798-16.067,8.314-16.067,8.314c0-49.966,32.618-63.956,32.618-63.956
					L52.357,84.545z"/>
			</g>
		</g>
		<g opacity="0.2">
			<g>
				<g>
					<path d="M92.377,77.082c27.293,0.941,56.094,13.19,56.493,60.529l7.659,10.892C161.127,86.88,123.652,75.848,92.377,77.082z"/>
				</g>
			</g>
		</g>
		<g opacity="0.3">
			<g>
				<g>
					<path fill="#FFFFFF" d="M69.595,94.414l-9.243-9.869c0,0,18.55-6.62,40.02-7.463c-24.64-0.851-48.015,7.463-48.015,7.463
						l8.635,7.995c0,0-32.618,13.99-32.618,63.956c0,0,3.006-1.733,8.174-4.392C38.429,105.789,69.595,94.414,69.595,94.414z"/>
				</g>
			</g>
		</g>
		<g>
			<g>
				<path fill="#EAC6BB" d="M156.529,148.502v8.072c0,37.975-34.617,72.993-55.962,72.993c-21.267,0-55.962-35.019-55.962-72.993
					v-8.072l-0.164-0.32c21.345-10.153,60.357-25.74,95.216-23.664L156.529,148.502z"/>
			</g>
		</g>
		<g opacity="0.2">
			<g>
				<path d="M139.657,124.518c-5.2-0.308-10.485-0.129-15.802,0.273l16.684,23.711v8.072c0,33.513-26.951,64.687-47.96,71.557
					c2.795,0.914,5.489,1.437,7.987,1.437c21.345,0,55.962-35.019,55.962-72.993v-8.072L139.657,124.518z"/>
			</g>
		</g>
		<g opacity="0.3">
			<g>
				<path fill="#FFFFFF" d="M60.594,156.574v-8.072l-0.164-0.32c18.159-8.639,49.115-21.114,79.414-23.391l-0.187-0.273
					c-34.859-2.077-73.872,13.51-95.216,23.664l0.164,0.32v8.072c0,37.975,34.695,72.993,55.962,72.993
					c2.506,0,5.207-0.523,8.002-1.437C87.607,221.261,60.594,190.087,60.594,156.574z"/>
			</g>
		</g>
	</g>
	<g>
		<g>
			<path fill="#965353" d="M307.848,131.88c0,0,57.797-8.232,43.971,79.946l-27.982-39.973c0,0-33.102,15.989-68.117,15.989
				c-35.015,0-67.79-15.989-67.79-15.989l-27.981,39.973c-2.881-30.936,2.553-54.279,13.03-71.631
				c39.567-66.115,150.858-48.288,150.858-48.288C297.689,102.701,307.848,131.88,307.848,131.88z"/>
		</g>
	</g>
	<g opacity="0.4">
		<g>
			<g>
				<path d="M307.848,131.88c0,0,32.557-6.862,29.979,59.959l13.992,19.986C365.645,123.647,307.848,131.88,307.848,131.88z"/>
			</g>
		</g>
	</g>
	<g opacity="0.3">
		<g>
			<g>
				<path fill="#FFFFFF" d="M188.967,140.195c23.898-39.934,73.943-49.228,109.839-50.34c-35.188-1.093-98.097,4.005-125.829,50.34
					c-10.477,17.352-15.911,40.695-13.03,71.631l15.349-21.922C176.109,169.53,181.121,153.182,188.967,140.195z"/>
			</g>
		</g>
	</g>
	<g>
		<g>
			<path fill="#EAC6BB" d="M351.818,211.826v7.838c0,62.513-59.406,120.075-95.936,120.075c-23.906,0-57.804-24.78-78.189-59.476
				c-10.711-18.151-17.746-39.095-17.746-60.6v-7.838l27.981-39.973c0,0,32.774,15.989,67.79,15.989
				c35.016,0,68.117-15.989,68.117-15.989L351.818,211.826z"/>
		</g>
	</g>
	<g opacity="0.3">
		<g>
			<g>
				<path fill="#FFFFFF" d="M193.683,280.264c-10.712-18.151-17.746-39.095-17.746-60.6v-7.838l24.39-34.847
					c-7.706-2.842-12.397-5.125-12.397-5.125l-27.981,39.973v7.838c0,21.505,7.035,42.448,17.746,60.6
					c20.385,34.695,54.283,59.476,78.189,59.476c2.553,0,5.23-0.344,7.979-0.891C240.846,334.266,211.889,311.242,193.683,280.264z"
					/>
			</g>
		</g>
	</g>
	<g opacity="0.2">
		<g>
			<g>
				<path d="M317.029,280.264c10.711-18.151,17.746-39.095,17.746-60.6v-7.838l-24.391-34.847
					c7.705-2.842,12.398-5.125,12.398-5.125l27.98,39.973v7.838c0,21.505-7.035,42.448-17.746,60.6
					c-20.385,34.695-54.283,59.476-78.189,59.476c-2.553,0-5.23-0.344-7.979-0.891C269.865,334.266,298.822,311.242,317.029,280.264
					z"/>
			</g>
		</g>
	</g>
	<g>
		<g>
			<polygon fill="#E6E9ED" points="219.907,363.723 187.929,323.749 187.929,315.755 206.698,315.755 228.191,331.314 
				255.883,339.739 255.914,347.733 			"/>
		</g>
	</g>
	<g>
		<g>
			<polygon fill="#E6E9ED" points="291.889,363.723 323.867,323.749 323.867,315.755 305.1,315.755 283.605,331.314 
				255.914,339.739 255.883,347.733 			"/>
		</g>
	</g>
	<g>
		<g>
			<g>
				<path fill="#3A3847" d="M256.156,375.753c-2.209,0-4.036-1.787-4.036-3.997c0-2.209,1.749-3.997,3.95-3.997h0.086
					c2.202,0,3.999,1.788,3.999,3.997C260.154,373.966,258.357,375.753,256.156,375.753z"/>
			</g>
		</g>
		<g>
			<g>
				<path fill="#3A3847" d="M256.156,399.737c-2.209,0-4.036-1.788-4.036-3.998c0-2.209,1.749-3.997,3.95-3.997h0.086
					c2.202,0,3.999,1.788,3.999,3.997C260.154,397.949,258.357,399.737,256.156,399.737z"/>
			</g>
		</g>
		<g>
			<g>
				<path fill="#3A3847" d="M256.156,423.721c-2.209,0-4.036-1.788-4.036-3.997c0-2.21,1.749-3.998,3.95-3.998h0.086
					c2.202,0,3.999,1.788,3.999,3.998C260.154,421.933,258.357,423.721,256.156,423.721z"/>
			</g>
		</g>
		<g>
			<g>
				<path fill="#3A3847" d="M411.926,271.832c-2.211,0-4.037-1.788-4.037-3.997c0-2.21,1.748-3.998,3.951-3.998h0.086
					c2.201,0,3.996,1.788,3.996,3.998C415.922,270.044,414.127,271.832,411.926,271.832z"/>
			</g>
		</g>
		<g>
			<g>
				<g>
					<path fill="#3A3847" d="M419.771,439.671H91.995c-2.21,0-3.998-1.788-3.998-3.998v-39.809
						c0-24.171,12.429-33.391,35.375-41.963c13.35-4.989,39.91-15.42,54.775-22.852c1.975-0.992,4.372-0.188,5.364,1.787
						c0.983,1.976,0.188,4.372-1.788,5.363c-18.675,9.338-51.832,21.798-55.556,23.195c-20.447,7.628-30.175,14.74-30.175,34.469
						v35.812h319.782v-35.812c0-19.752-9.703-26.856-30.104-34.469c-13.469-5.035-40.332-15.583-55.619-23.195
						c-1.975-0.983-2.779-3.38-1.795-5.355c0.975-1.982,3.389-2.795,5.355-1.795c14.998,7.455,41.533,17.878,54.854,22.852
						c22.898,8.549,35.303,17.769,35.303,41.963v39.809C423.768,437.883,421.98,439.671,419.771,439.671z"/>
				</g>
			</g>
			<g>
				<g>
					<path fill="#3A3847" d="M255.883,343.736c-25.959,0-61.052-26.42-81.632-61.45c-11.968-20.279-18.3-41.937-18.3-62.622
						c0-2.209,1.788-3.997,3.997-3.997c2.21,0,3.998,1.788,3.998,3.997c0,19.257,5.941,39.509,17.191,58.569
						c18.948,32.252,51.777,57.508,74.746,57.508c34.586,0,91.938-56.219,91.938-116.077c0-2.209,1.787-3.997,3.998-3.997
						c2.209,0,3.996,1.788,3.996,3.997C355.814,285.744,293.529,343.736,255.883,343.736z"/>
				</g>
			</g>
			<g>
				<g>
					<path fill="#3A3847" d="M159.948,215.823c-0.343,0-0.687-0.043-1.022-0.133c-1.624-0.43-2.803-1.823-2.959-3.494
						c-2.756-29.644,1.812-54.564,13.592-74.066c25.92-43.314,80.196-52.41,121.168-52.41c19.541,0,33.172,2.147,33.742,2.241
						c1.764,0.281,3.131,1.706,3.342,3.482c0.203,1.776-0.797,3.478-2.451,4.162c-18.051,7.448-16.107,25.096-14.521,32.083
						c7.486-0.207,22.672,1.44,33.984,14.674c12.297,14.381,15.98,37.958,10.945,70.085c-0.258,1.608-1.459,2.904-3.045,3.275
						c-1.623,0.371-3.24-0.266-4.176-1.604l-26.084-37.252c-9.166,3.997-37.061,14.974-66.744,14.974
						c-29.652,0-57.297-10.954-66.423-14.966l-26.076,37.244C162.462,215.202,161.229,215.823,159.948,215.823z M323.836,167.855
						c1.266,0,2.506,0.605,3.271,1.706l22.078,31.537c2.516-24.503-0.982-42.486-10.438-53.538
						c-8.846-10.344-20.783-11.886-27.113-11.886c-1.906,0-3.107,0.148-3.232,0.164c-1.914,0.285-3.701-0.847-4.334-2.643
						c-3.232-9.306-4.668-27.154,7.932-38.595c-5.559-0.464-12.889-0.886-21.273-0.886c-31.846,0-89.049,6.308-114.321,48.533
						c-9.377,15.532-13.788,34.969-13.163,57.906l21.415-30.593c1.124-1.624,3.248-2.159,5.02-1.304
						c0.32,0.156,32.408,15.587,66.041,15.587c33.711,0,66.057-15.435,66.377-15.591
						C322.658,167.984,323.252,167.855,323.836,167.855z"/>
				</g>
			</g>
			<g>
				<g>
					<path fill="#3A3847" d="M411.691,239.807c-13.164,0-30.457-10.902-43.049-27.126c-1.352-1.745-1.031-4.255,0.709-5.609
						c1.742-1.354,4.256-1.042,5.613,0.707c10.971,14.15,26.076,24.035,36.727,24.035c19.549,0,51.965-31.288,51.965-64.593
						c0-2.21,1.787-3.998,3.996-3.998s3.998,1.788,3.998,3.998C471.65,205.881,434.277,239.807,411.691,239.807z"/>
				</g>
			</g>
			<g>
				<g>
					<path fill="#3A3847" d="M507.867,295.769H347.82c-2.209,0-3.998-1.788-3.998-3.997c0-2.21,1.789-3.997,3.998-3.997h156.051
						v-16.146c0-10.419-3.787-14.686-17.629-19.838c-2.125-0.82-4.764-1.694-7.707-2.671l-4.332-1.447
						c-2.084-0.711-3.209-2.982-2.498-5.071c0.719-2.096,2.982-3.197,5.074-2.502l4.279,1.433c3.074,1.022,5.83,1.939,8.018,2.779
						c14.42,5.375,22.789,11.574,22.789,27.317v20.143C511.865,293.98,510.076,295.769,507.867,295.769z"/>
				</g>
			</g>
			<g>
				<g>
					<path fill="#3A3847" d="M100.067,295.769H4.132c-2.209,0-3.997-1.788-3.997-3.997v-26.622c0-15.525,8.275-21.689,22.57-27.084
						c6.23-2.279,18.058-6.769,27.669-11.375c1.967-0.944,4.38-0.121,5.332,1.874c0.952,1.991,0.109,4.38-1.882,5.332
						c-9.907,4.751-22,9.346-28.332,11.664c-13.624,5.142-17.363,9.356-17.363,19.589v22.625h91.938
						c2.209,0,3.997,1.787,3.997,3.997C104.064,293.98,102.276,295.769,100.067,295.769z"/>
				</g>
			</g>
			<g>
				<g>
					<path fill="#3A3847" d="M163.945,295.769h-63.878c-2.209,0-3.997-1.788-3.997-3.997c0-2.21,1.788-3.997,3.997-3.997h63.878
						c2.209,0,3.998,1.787,3.998,3.997C167.943,293.98,166.155,295.769,163.945,295.769z"/>
				</g>
			</g>
			<g>
				<g>
					<path fill="#3A3847" d="M100.301,232.933c-22.586,0-59.959-35.944-59.959-76.909c0-2.209,1.788-3.998,3.997-3.998
						c2.209,0,3.997,1.788,3.997,3.998c0,35.535,32.416,68.914,51.965,68.914c10.532,0,25.514-10.407,36.436-25.307
						c1.312-1.776,3.802-2.166,5.59-0.862c1.78,1.304,2.163,3.806,0.859,5.586C130.656,221.448,113.425,232.933,100.301,232.933z"/>
				</g>
			</g>
			<g>
				<g>
					<path fill="#3A3847" d="M84.234,247.802c-1.038,0-2.061-0.402-2.826-1.172l-23.983-23.983c-1.562-1.562-1.562-4.091,0-5.652
						s4.091-1.562,5.652,0l21.961,21.958l13.272-6.574c1.515-0.823,3.412-0.651,4.708,0.578c1.601,1.522,1.702,4.013,0.18,5.609
						c-0.32,0.34-0.781,0.699-1.202,0.905l-15.997,7.917C85.436,247.665,84.835,247.802,84.234,247.802z"/>
				</g>
			</g>
			<g>
				<g>
					<path fill="#3A3847" d="M116.212,247.802c-0.602,0-1.21-0.137-1.772-0.414l-15.989-7.913l3.475-7.206l13.49,6.68l21.954-21.954
						c1.562-1.562,4.091-1.562,5.652,0s1.562,4.091,0,5.652l-23.983,23.983C118.273,247.399,117.25,247.802,116.212,247.802z"/>
				</g>
			</g>
			<g>
				<g>
					<path fill="#3A3847" d="M28.116,159.861c-0.687,0-1.374-0.18-1.999-0.535c-1.233-0.71-1.999-2.033-1.999-3.462
						c0-40.234,20.119-58.328,29.886-64.737l-4.622-4.282c-1.023-0.949-1.483-2.366-1.203-3.732c0.281-1.37,1.257-2.494,2.577-2.962
						c2.17-0.777,53.588-18.737,85.606,2.542c14.779,9.829,22.898,26.302,24.132,48.97c0.125,2.206-1.569,4.091-3.771,4.208
						c-2.42,0.355-4.083-1.569-4.208-3.771c-1.093-20.014-8.01-34.395-20.58-42.748c-22.508-14.962-57.617-7.612-72.021-3.646
						l3.537,3.271c0.992,0.918,1.452,2.276,1.226,3.611c-0.234,1.335-1.125,2.459-2.366,2.994
						c-1.155,0.507-27.309,12.464-29.979,53.424c16.879-8.865,64.729-31.635,107.302-29.109c1.39,0.078,2.639,0.878,3.294,2.111
						l8.533,15.946c1.062,1.937,0.352,4.364-1.585,5.426c-1.904,1.058-4.364,0.359-5.426-1.584l-7.511-14.022
						c-48.662-1.772-106.232,31.209-106.817,31.549C29.505,159.682,28.811,159.861,28.116,159.861z"/>
				</g>
			</g>
			<g>
				<g>
					<path fill="#3A3847" d="M100.067,255.796c-1.022,0-2.045-0.391-2.826-1.171l-7.995-7.995c-1.561-1.561-1.561-4.091,0-5.652
						c1.562-1.562,4.091-1.562,5.653,0l7.994,7.995c1.562,1.562,1.562,4.091,0,5.652
						C102.112,255.405,101.089,255.796,100.067,255.796z"/>
				</g>
			</g>
			<g>
				<g>
					<path fill="#3A3847" d="M100.067,255.796c-1.022,0-2.045-0.391-2.826-1.171c-1.562-1.562-1.562-4.091,0-5.652l7.995-7.995
						c1.561-1.562,4.091-1.562,5.652,0s1.562,4.092,0,5.652l-7.995,7.995C102.112,255.405,101.089,255.796,100.067,255.796z"/>
				</g>
			</g>
			<g>
				<g>
					<path fill="#3A3847" d="M92.08,287.774c-0.148,0-0.296-0.008-0.453-0.023c-2.194-0.242-3.771-2.218-3.529-4.419l3.997-35.972
						c0.242-2.198,2.131-3.799,4.419-3.533c2.194,0.246,3.771,2.222,3.529,4.415l-3.997,35.979
						C95.82,286.26,94.086,287.774,92.08,287.774z"/>
				</g>
			</g>
			<g>
				<g>
					<path fill="#3A3847" d="M108.054,287.774c-2.006,0-3.74-1.515-3.966-3.553l-3.997-35.979c-0.242-2.193,1.335-4.169,3.529-4.415
						c2.241-0.258,4.177,1.335,4.419,3.533l3.998,35.972c0.242,2.201-1.335,4.177-3.529,4.419
						C108.35,287.767,108.202,287.774,108.054,287.774z"/>
				</g>
			</g>
			<g>
				<g>
					<path fill="#3A3847" d="M483.729,234.693c-2.211,0-3.998-1.788-3.998-3.998v-74.832c0-2.21,1.787-3.998,3.998-3.998
						c2.209,0,3.996,1.788,3.996,3.998v74.832C487.725,232.905,485.938,234.693,483.729,234.693z"/>
				</g>
			</g>
			<g>
				<g>
					<path fill="#3A3847" d="M347.336,127.883c-0.602,0-1.209-0.133-1.779-0.417c-1.977-0.98-2.779-3.38-1.805-5.356
						c12.93-26.025,38.99-42.194,68.025-42.194c2.209,0,3.996,1.788,3.996,3.998c0,2.209-1.787,3.997-3.996,3.997
						c-25.975,0-49.295,14.467-60.857,37.752C350.217,127.071,348.805,127.883,347.336,127.883z"/>
				</g>
			</g>
			<g>
				<g>
					<path fill="#3A3847" d="M483.729,159.861c-2.211,0-3.998-1.788-3.998-3.997c0-16.813-6.137-32.896-17.285-45.294
						c-12.914-14.404-31.385-22.66-50.668-22.66c-2.211,0-3.998-1.788-3.998-3.997c0-2.21,1.787-3.998,3.998-3.998
						c21.555,0,42.189,9.224,56.617,25.311c12.469,13.865,19.33,31.85,19.33,50.638
						C487.725,158.073,485.938,159.861,483.729,159.861z"/>
				</g>
			</g>
			<g>
				<g>
					<path fill="#3A3847" d="M371.805,161.622c-1.75,0-3.357-1.155-3.85-2.919c-0.594-2.128,0.648-4.333,2.771-4.927
						c18.535-5.176,37.053-13.038,55.049-23.363c22.82-12.964,36.842-25.377,36.982-25.499c1.646-1.472,4.176-1.331,5.645,0.324
						c1.467,1.647,1.326,4.173-0.32,5.641c-0.594,0.527-14.74,13.069-38.342,26.474c-18.557,10.649-37.691,18.769-56.859,24.121
						C372.521,161.575,372.154,161.622,371.805,161.622z"/>
				</g>
			</g>
			<g>
				<g>
					<path fill="#3A3847" d="M483.729,167.855c-0.336,0-0.68-0.043-1.016-0.133c-38.686-10.176-57.148-30.233-57.914-31.08
						c-1.475-1.636-1.35-4.157,0.281-5.641c1.631-1.464,4.162-1.358,5.645,0.273c0.172,0.191,17.801,19.186,54.018,28.719
						c2.139,0.562,3.412,2.748,2.85,4.883C487.123,166.669,485.5,167.855,483.729,167.855z"/>
				</g>
			</g>
			<g>
				<g>
					<path fill="#3A3847" d="M467.652,171.217c-2.209,0-3.996-1.788-3.996-3.997v-8.475c0-2.209,1.787-3.997,3.996-3.997
						s3.998,1.788,3.998,3.997v8.475C471.65,169.429,469.861,171.217,467.652,171.217z"/>
				</g>
			</g>
			<g>
				<g>
					<path fill="#3A3847" d="M427.922,287.774c-1.016,0-2.037-0.391-2.818-1.164c-1.561-1.553-1.576-4.083-0.016-5.652
						l21.018-21.157l-5.178-5.176c-0.85-0.848-1.271-2.03-1.154-3.221c0.125-1.19,0.766-2.269,1.764-2.932l19.113-12.745
						l-11.195-7.834c-1.805-1.265-2.25-3.759-0.977-5.567c1.264-1.815,3.756-2.244,5.566-0.983l15.988,11.191
						c1.078,0.758,1.719,1.999,1.703,3.322c-0.016,1.319-0.68,2.545-1.781,3.279l-19.924,13.284l4.545,4.548
						c1.561,1.558,1.561,4.079,0.008,5.645l-23.828,23.983C429.975,287.384,428.953,287.774,427.922,287.774z"/>
				</g>
			</g>
			<g>
				<g>
					<path fill="#3A3847" d="M395.623,287.774c-1.029,0-2.053-0.391-2.834-1.18l-23.818-23.983
						c-1.555-1.565-1.555-4.087,0.008-5.645l4.527-4.528l-3.904-2.576c-1.842-1.218-2.35-3.696-1.131-5.539
						c1.209-1.851,3.691-2.346,5.535-1.136l7.994,5.273c1,0.663,1.654,1.741,1.771,2.936c0.125,1.194-0.295,2.381-1.146,3.229
						l-5.176,5.176l21.008,21.157c1.562,1.569,1.547,4.1-0.016,5.652C397.662,287.384,396.639,287.774,395.623,287.774z"/>
				</g>
			</g>
			<g>
				<g>
					<path fill="#3A3847" d="M411.777,255.796c-17.441,0-26.436-8.791-26.811-9.166c-1.561-1.561-1.561-4.091,0-5.652
						c1.561-1.546,4.084-1.558,5.629-0.023l0,0c0.289,0.281,7.23,6.848,21.182,6.848c13.967,0,20.906-6.5,21.195-6.777
						c1.586-1.515,4.107-1.479,5.637,0.082c1.531,1.573,1.523,4.075-0.039,5.621C438.195,247.099,429.211,255.796,411.777,255.796z"
						/>
				</g>
			</g>
			<g>
				<g>
					<path fill="#3A3847" d="M187.929,327.747c-2.21,0-3.998-1.788-3.998-3.998v-7.994c0-2.209,1.788-3.997,3.998-3.997
						c2.209,0,3.997,1.788,3.997,3.997v7.994C191.926,325.959,190.138,327.747,187.929,327.747z"/>
				</g>
			</g>
			<g>
				<g>
					<path fill="#3A3847" d="M219.907,367.72c-1.171,0-2.334-0.516-3.123-1.499l-31.986-39.988
						c-1.374-1.726-1.085-4.239,0.648-5.613c1.725-1.374,4.247-1.093,5.613,0.647l31.97,39.957c1.374,1.726,1.101,4.24-0.624,5.621
						C221.671,367.431,220.79,367.72,219.907,367.72z"/>
				</g>
			</g>
			<g>
				<g>
					<path fill="#3A3847" d="M219.907,367.72c-1.46,0-2.873-0.812-3.576-2.209c-0.983-1.976-0.188-4.373,1.788-5.364l31.978-15.989
						c1.975-0.983,4.372-0.188,5.364,1.788c0.983,1.976,0.187,4.372-1.788,5.363l-31.979,15.989
						C221.118,367.587,220.508,367.72,219.907,367.72z"/>
				</g>
			</g>
			<g>
				<g>
					<path fill="#3A3847" d="M323.836,327.747c-2.209,0-3.996-1.788-3.996-3.998v-7.994c0-2.209,1.787-3.997,3.996-3.997
						c2.211,0,3.998,1.788,3.998,3.997v7.994C327.834,325.959,326.047,327.747,323.836,327.747z"/>
				</g>
			</g>
			<g>
				<g>
					<path fill="#3A3847" d="M291.857,367.72c-0.881,0-1.756-0.289-2.498-0.875c-1.725-1.381-1.998-3.896-0.623-5.621l31.969-39.965
						c1.383-1.732,3.904-2.006,5.621-0.64c1.727,1.382,2.016,3.896,0.641,5.621l-31.986,39.98
						C294.193,367.204,293.029,367.72,291.857,367.72z"/>
				</g>
			</g>
			<g>
				<g>
					<path fill="#3A3847" d="M291.857,367.72c-0.6,0-1.209-0.133-1.787-0.422l-31.979-15.989c-1.975-0.991-2.771-3.388-1.788-5.363
						c0.993-1.968,3.389-2.764,5.364-1.788l31.979,15.989c1.975,0.991,2.771,3.389,1.787,5.364
						C294.73,366.907,293.318,367.72,291.857,367.72z"/>
				</g>
			</g>
		</g>
	</g>
</g>
</svg>
